<?xml version="1.0" encoding="iso-8859-1"?>
<!-- Uploaded to: SVG Repo, www.svgrepo.com, Generator: SVG Repo Mixer Tools -->
<svg version="1.1" id="Layer_1" xmlns="http://www.w3.org/2000/svg" xmlns:xlink="http://www.w3.org/1999/xlink" 
	 viewBox="0 0 512 512" xml:space="preserve">
<circle style="fill:#FFC91B;" cx="256" cy="256" r="256"/>
<path style="fill:#EAA22F;" d="M502.801,324.187L402.475,223.277l-5.979,32.147h-17.461l-32.958-31.589l-5.742,15.665
	l-84.756-85.449l-14.348,18.797l-24.881-24.881L67.796,192.214l151.98,151.978L83.092,377.901l130.6,130.6
	c13.764,2.289,27.895,3.5,42.308,3.5C373.77,512,472.95,432.468,502.801,324.187z"/>
<path style="fill:#FFFFFF;" d="M171.553,279.566c-3.332,0-6.034-2.701-6.034-6.034v-100.7c0-3.332,2.701-6.034,6.034-6.034
	s6.034,2.701,6.034,6.034v100.7C177.586,276.864,174.883,279.566,171.553,279.566z"/>
<path style="fill:#FF6262;" d="M171.553,113.778c-49.362,0-90.948,33.175-103.757,78.436h207.512
	C262.501,146.953,220.915,113.778,171.553,113.778z"/>
<path style="fill:#FF314F;" d="M171.553,113.778c-15.97,0-29.424,33.175-33.568,78.436h67.134
	C200.976,146.953,187.523,113.778,171.553,113.778z"/>
<rect x="71.111" y="263.671" style="fill:#386895;" width="369.778" height="28.444"/>
<rect x="255.431" y="263.671" style="fill:#273B7A;" width="185.458" height="28.444"/>
<path style="fill:#38C6D9;" d="M386.543,398.222H125.457c-30.015,0-54.346-24.331-54.346-54.346v-59.432h369.778v59.432
	C440.889,373.891,416.558,398.222,386.543,398.222z"/>
<path style="fill:#02B2B2;" d="M255.426,284.444v113.778h131.117c30.015,0,54.346-24.331,54.346-54.346v-59.432H255.426z"/>
<path style="fill:#FFFFFF;" d="M398.222,221.522c-3.332,0-6.034,2.701-6.034,6.034v22.411h-44.822v-22.411
	c0-3.332-2.701-6.034-6.034-6.034s-6.034,2.701-6.034,6.034v113.778c0,3.332,2.701,6.034,6.034,6.034s6.034-2.701,6.034-6.034
	v-22.411h44.822v22.411c0,3.332,2.701,6.034,6.034,6.034c3.332,0,6.034-2.701,6.034-6.034V227.556
	C404.256,224.223,401.555,221.522,398.222,221.522z M392.189,306.855h-44.822v-16.377h44.822V306.855z M392.189,278.411h-44.822
	v-16.377h44.822V278.411z"/>
</svg>